<svg width="25" height="22" viewBox="0 0 25 22" fill="none" xmlns="http://www.w3.org/2000/svg">
<path d="M0 1.53885C0 1.13073 0.131696 0.739312 0.366116 0.45072C0.600537 0.162129 0.918479 0 1.25 0H23.75C24.0815 0 24.3995 0.162129 24.6339 0.45072C24.8683 0.739312 25 1.13073 25 1.53885C25 1.94698 24.8683 2.3384 24.6339 2.62699C24.3995 2.91558 24.0815 3.07771 23.75 3.07771H1.25C0.918479 3.07771 0.600537 2.91558 0.366116 2.62699C0.131696 2.3384 0 1.94698 0 1.53885Z" fill="#fff"/>
<path d="M0 10.8212C0 10.4131 0.131696 10.0217 0.366116 9.73308C0.600537 9.44449 0.918479 9.28236 1.25 9.28236H23.75C24.0815 9.28236 24.3995 9.44449 24.6339 9.73308C24.8683 10.0217 25 10.4131 25 10.8212C25 11.2294 24.8683 11.6208 24.6339 11.9094C24.3995 12.1979 24.0815 12.3601 23.75 12.3601H1.25C0.918479 12.3601 0.600537 12.1979 0.366116 11.9094C0.131696 11.6208 0 11.2294 0 10.8212Z" fill="#fff"/>
<path d="M1.25 18.5647C0.918479 18.5647 0.600537 18.7269 0.366116 19.0155C0.131696 19.3041 0 19.6955 0 20.1036C0 20.5117 0.131696 20.9031 0.366116 21.1917C0.600537 21.4803 0.918479 21.6425 1.25 21.6425H23.75C24.0815 21.6425 24.3995 21.4803 24.6339 21.1917C24.8683 20.9031 25 20.5117 25 20.1036C25 19.6955 24.8683 19.3041 24.6339 19.0155C24.3995 18.7269 24.0815 18.5647 23.75 18.5647H1.25Z" fill="#fff"/>
</svg>
