<svg width="142" height="43" viewBox="0 0 142 43" fill="none" xmlns="http://www.w3.org/2000/svg">
<path d="M19.6873 31.1407C19.6873 31.1407 21.2587 28.4574 20.8817 26.6791C20.8817 26.6791 29.8416 14.0107 36.0659 0.0628998C36.0659 0.0628998 55.1168 14.1034 61.5924 17.2868C61.5924 17.2868 67.691 7.92537 70.8348 0C70.8348 0 107.553 27.3337 141.379 41.8124C141.379 41.8124 138.794 41.9296 138.015 42.1866C138.015 42.1866 113.589 34.823 69.7038 8.11301C69.7038 8.11301 65.4289 15.5394 63.6685 18.4104C63.6685 18.4104 90.2948 34.9787 106.706 41.7185C106.706 41.7185 103.923 41.6023 103.098 42.21C103.098 42.21 65.3033 27.8337 34.7469 7.86354C34.7469 7.86354 29.8105 18.9765 19.6873 31.1407Z" fill="url(#paint0_linear)"/>
<path d="M111.627 17.3031C111.574 17.347 111.514 17.3498 111.449 17.3113C111.524 17.355 111.171 17.12 110.39 16.6065C109.91 16.9862 109.601 17.2322 109.465 17.3442C109.137 17.6146 108.662 18.0288 108.035 18.5869C107.413 19.1467 106.94 19.5607 106.614 19.8288C106.535 19.8948 106.45 19.9015 106.36 19.849C106.235 19.7756 106.049 19.6594 105.803 19.5003C105.561 19.339 105.375 19.2208 105.246 19.1456C105.125 19.0739 104.936 18.9708 104.68 18.8362C104.424 18.7017 104.236 18.5986 104.114 18.527C104.015 18.4693 104.004 18.4086 104.082 18.3449C104.407 18.0768 104.912 17.6811 105.597 17.158C106.286 16.6366 106.793 16.2407 107.121 15.9705C107.251 15.8628 107.54 15.6164 107.986 15.2314C107.708 15.0908 107.285 14.8842 106.716 14.6118C106.687 14.5684 106.676 14.5446 106.681 14.5402C106.711 14.516 106.872 14.4188 107.165 14.2485C107.485 14.0642 107.671 13.955 107.723 13.9212C107.976 13.7243 108.301 13.4989 108.695 13.2451C108.725 13.2327 108.758 13.2371 108.794 13.2581C108.805 13.265 108.827 13.2812 108.857 13.3066C109.395 13.7046 110.1 14.1586 110.971 14.6691C111.236 14.8246 111.766 15.0913 112.557 15.4689C112.954 15.6558 113.164 15.757 113.191 15.7728C113.281 15.8253 113.306 15.8679 113.266 15.901C113.169 15.9801 113.017 16.0954 112.807 16.2471C112.601 16.3966 112.45 16.5109 112.354 16.59C112.263 16.6647 112.143 16.7836 111.99 16.9466C111.839 17.1095 111.717 17.2284 111.627 17.3031ZM115.192 19.6906C115.093 19.772 114.934 19.8908 114.713 20.0473C114.496 20.2017 114.336 20.3206 114.235 20.4042C114.136 20.4855 113.992 20.6111 113.801 20.7812C113.613 20.949 113.469 21.0737 113.37 21.155C113.253 21.2517 113.058 21.2196 112.783 21.0588C112.72 21.0221 112.641 20.9719 112.545 20.908C112.452 20.842 112.392 20.8012 112.365 20.7854C112.15 20.6596 111.968 20.6582 111.819 20.7812C111.661 20.9109 111.437 21.1115 111.143 21.383C110.849 21.6546 110.624 21.8552 110.467 21.9849C110.332 22.097 110.2 22.1155 110.071 22.0403C109.975 21.9843 109.834 21.8963 109.649 21.776C109.463 21.6559 109.322 21.5678 109.226 21.5118C109.126 21.4524 108.971 21.3635 108.762 21.2451C108.556 21.1285 108.403 21.0404 108.302 20.981C108.174 20.9059 108.166 20.821 108.281 20.7265L110.147 19.1871C110.728 18.708 111.163 18.2583 111.453 17.8382C111.473 17.8087 111.494 17.7852 111.515 17.7677C111.569 17.7237 111.629 17.71 111.696 17.7265C111.794 17.7504 111.972 17.8246 112.23 17.949C112.528 18.094 112.715 18.1813 112.791 18.211C113.51 18.4775 113.888 18.6221 113.927 18.6448C113.986 18.6797 113.934 18.7732 113.77 18.9253C113.609 19.0791 113.55 19.1682 113.592 19.1926C113.565 19.1769 113.756 19.1875 114.165 19.2244C114.578 19.263 114.921 19.3627 115.195 19.5236C115.272 19.569 115.271 19.6246 115.192 19.6906ZM120.635 23.1227C120.616 23.1381 120.577 23.162 120.517 23.1947C119.781 23.6205 119.228 23.9862 118.859 24.2917C118.571 24.529 118.177 24.8881 117.675 25.3688C117.3 25.7242 117.113 25.9019 117.113 25.9019C117.007 25.9898 116.886 25.9995 116.749 25.9309C116.749 25.9309 116.481 25.7737 115.944 25.459C115.845 25.4013 115.69 25.3183 115.48 25.21C115.272 25.1034 115.12 25.0213 115.021 24.9636C114.899 24.892 114.888 24.8104 114.989 24.7191C115.089 24.6276 115.122 24.5714 115.086 24.5504C115.101 24.5592 114.907 24.5359 114.504 24.4806C114.105 24.4231 113.815 24.341 113.632 24.2344C113.048 23.8918 112.774 23.444 112.812 22.891C112.847 22.3741 113.134 21.8936 113.672 21.4497C114.297 20.9333 115.014 20.6181 115.82 20.5043C116.488 20.4112 117.189 20.5789 117.919 21.007C118.071 21.0963 118.241 21.2575 118.427 21.4908C118.616 21.722 118.708 21.8357 118.702 21.8322C118.726 21.8463 118.792 21.8191 118.901 21.751C119.011 21.6845 119.099 21.6706 119.165 21.709C119.264 21.7666 119.514 21.975 119.915 22.3342C120.298 22.679 120.538 22.904 120.634 23.0096C120.672 23.0543 120.672 23.0919 120.635 23.1227ZM116.788 23.1462C117.033 22.944 117.021 22.7643 116.753 22.6069C116.631 22.5353 116.494 22.5035 116.34 22.5117C116.188 22.5199 116.058 22.568 115.951 22.6559C115.845 22.7438 115.8 22.8398 115.817 22.9436C115.834 23.0474 115.903 23.1353 116.025 23.2069C116.142 23.2751 116.271 23.3035 116.412 23.2923C116.559 23.2806 116.684 23.2319 116.788 23.1462ZM125.201 26.8302C124.656 27.2807 124.323 27.5295 124.204 27.5766C123.885 27.7014 123.301 27.865 122.454 28.0675C121.482 28.3018 120.93 28.3806 120.799 28.3036C120.703 28.2478 120.563 28.1585 120.38 28.0361C120.197 27.9137 120.057 27.8245 119.962 27.7687C119.861 27.7092 119.705 27.6254 119.495 27.5171C119.286 27.4104 119.133 27.3275 119.031 27.268C118.9 27.1911 118.918 26.8015 119.085 26.0993C119.23 25.4961 119.363 25.0665 119.484 24.8107C119.585 24.6101 119.857 24.3263 120.302 23.9593C120.403 23.8758 120.558 23.7522 120.766 23.5887C120.978 23.423 121.134 23.2984 121.235 23.2149C121.323 23.1423 121.431 23.1437 121.559 23.2189C121.673 23.2853 121.838 23.3902 122.057 23.5335C122.28 23.6787 122.447 23.7844 122.561 23.8508C122.659 23.9085 122.809 23.9889 123.011 24.092C123.215 24.1968 123.367 24.278 123.465 24.3357C123.543 24.3811 123.532 24.4446 123.433 24.5258C123.325 24.616 123.152 24.7498 122.917 24.9274C122.684 25.1029 122.511 25.2367 122.399 25.329C121.8 25.8235 121.592 26.1248 121.777 26.2333C121.989 26.3574 122.501 26.0842 123.314 25.414C123.391 25.3502 123.496 25.2516 123.627 25.118C123.761 24.9823 123.865 24.8837 123.939 24.8221C124.038 24.7408 124.127 24.7238 124.208 24.7709C124.303 24.8269 124.443 24.916 124.625 25.0385C124.809 25.1609 124.949 25.25 125.044 25.306C125.145 25.3653 125.301 25.4493 125.512 25.5576C125.725 25.6676 125.883 25.7523 125.984 25.8118C126.053 25.852 126.089 25.8828 126.094 25.9043C126.098 25.9258 126.082 25.9688 126.044 26.0333C125.962 26.169 125.68 26.4345 125.201 26.8302ZM129.34 30.3096C129.062 30.5382 128.806 30.6132 128.569 30.5347C128.485 30.5077 128.053 30.3167 127.274 29.9618L126.12 29.4373C126.065 29.533 126.092 29.6501 126.199 29.7884C126.287 29.8965 126.399 29.9899 126.533 30.0685C126.667 30.1472 126.879 30.2246 127.17 30.3007C127.463 30.3787 127.626 30.4272 127.659 30.4465C127.707 30.4744 127.721 30.5169 127.703 30.574C127.658 30.6748 127.595 30.8268 127.518 31.0294C127.516 31.0317 127.499 31.1253 127.469 31.3103C127.442 31.4753 127.422 31.5632 127.409 31.5742C127.379 31.5984 127.33 31.6124 127.259 31.616C126.643 31.6571 125.929 31.44 125.117 30.9645C124.342 30.5101 123.9 30.0201 123.793 29.4947C123.674 28.9323 123.952 28.3721 124.629 27.8139C125.239 27.3107 125.976 27.0207 126.838 26.9439C127.705 26.869 128.476 27.0298 129.154 27.4266C129.745 27.7727 130.054 28.2305 130.083 28.8C130.117 29.3691 129.87 29.8723 129.34 30.3096ZM127.842 29.0261C127.922 28.9602 127.963 28.8765 127.963 28.7753C127.966 28.6758 127.924 28.6006 127.838 28.55C127.734 28.4888 127.602 28.4606 127.443 28.4652C127.29 28.4695 127.168 28.509 127.078 28.5837C127.016 28.6342 127.035 28.6884 127.133 28.7461C127.19 28.7793 127.273 28.8183 127.382 28.8633C127.52 28.9217 127.605 28.9586 127.638 28.9739C127.75 29.0285 127.819 29.0459 127.842 29.0261ZM135.644 29.2117C135.628 29.2249 135.591 29.2517 135.532 29.2922C134.593 29.9448 133.722 30.6018 132.921 31.2633C132.625 31.5072 132.185 31.8769 131.599 32.3722C131.019 32.8671 130.582 33.2365 130.287 33.4804C130.172 33.5748 130.11 33.6245 130.098 33.6294C130.025 33.669 129.948 33.6652 129.867 33.618C129.763 33.5568 129.611 33.4607 129.414 33.3295C129.218 33.2001 129.069 33.1049 128.964 33.0437C128.859 32.9825 128.698 32.8951 128.478 32.7816C128.262 32.6697 128.101 32.5833 127.997 32.5221C127.913 32.4731 127.894 32.4201 127.937 32.363C127.945 32.3565 128.007 32.306 128.122 32.2114C128.417 31.9675 128.865 31.6042 129.465 31.1215C130.068 30.6368 130.518 30.2724 130.813 30.0285C131.101 29.791 131.509 29.423 132.037 28.9243C132.567 28.4274 132.975 28.0613 133.261 27.8261C133.317 27.7801 133.366 27.7602 133.409 27.7666C133.435 27.7706 133.467 27.7839 133.506 27.8066C133.625 27.8765 133.798 27.9829 134.023 28.1259C134.25 28.2706 134.422 28.377 134.538 28.4451C134.654 28.5133 134.833 28.6123 135.074 28.742C135.317 28.8735 135.497 28.9733 135.613 29.0415C135.706 29.0956 135.716 29.1524 135.644 29.2117Z" fill="black"/>
<path d="M35.6838 28.7303C35.6341 28.8813 35.5214 28.9568 35.3452 28.9568C35.5453 28.9568 34.5636 28.9002 32.4002 28.7869C31.9313 30.1159 31.6335 30.9729 31.5069 31.3581C31.2015 32.2869 30.7835 33.6801 30.2529 35.5376C29.7303 37.3952 29.3175 38.7846 29.0146 39.7059C28.9401 39.9324 28.7828 40.0456 28.5428 40.0456C28.2067 40.0456 27.6995 40.0305 27.0213 40.0003C26.3454 39.9626 25.8355 39.9437 25.4913 39.9437C25.1633 39.9437 24.6661 39.9588 24 39.989C23.3338 40.0192 22.8368 40.0343 22.5086 40.0343C22.2446 40.0343 22.1486 39.9248 22.2206 39.7059C22.5235 38.7846 23.0202 37.3952 23.711 35.5376C24.4096 33.6801 24.9117 32.2869 25.217 31.3581C25.3387 30.9881 25.5969 30.1536 25.992 28.8549C25.2729 28.9002 24.1892 28.9833 22.7411 29.1041C22.6304 29.0512 22.5776 29.0172 22.5825 29.0021C22.6098 28.9191 22.8044 28.5339 23.1664 27.8468C23.5642 27.0993 23.7923 26.6613 23.8505 26.5329C24.1029 25.8382 24.4572 25.0038 24.9135 24.0297C24.9573 23.9693 25.0272 23.9391 25.1233 23.9391C25.1553 23.9391 25.2168 23.9466 25.3079 23.9617C26.8538 24.1278 28.7951 24.2109 31.1317 24.2109C31.844 24.2109 33.2089 24.1241 35.2266 23.9504C36.2327 23.8598 36.7718 23.8145 36.8438 23.8145C37.0838 23.8145 37.1853 23.8711 37.1481 23.9844C37.0587 24.2562 36.9034 24.6678 36.6821 25.219C36.4633 25.7627 36.3093 26.1705 36.2199 26.4423C36.1355 26.699 36.0462 27.0804 35.9519 27.5862C35.8576 28.0922 35.7682 28.4736 35.6838 28.7303Z" fill="black"/>
<path d="M20.6032 24.3436C20.3802 25.2025 20.0007 26.4982 19.4645 28.2308C18.9304 29.956 18.5508 31.2517 18.3259 32.118L16.3512 39.6325C16.3062 39.8059 16.1465 39.8924 15.8721 39.8924C15.6135 39.8924 15.2294 39.8774 14.72 39.8472C14.2184 39.8172 13.8383 39.802 13.5795 39.802C13.3131 39.802 12.9056 39.8172 12.3569 39.8472C11.8083 39.8774 11.3968 39.8924 11.1225 39.8924C10.9893 39.8924 10.8608 39.7681 10.7373 39.5195C8.87412 35.7379 7.82508 33.8469 7.58996 33.8469C7.48019 33.8469 7.39695 33.9562 7.34024 34.1746C7.18761 34.7623 6.98133 35.6474 6.72124 36.8302C6.46311 38.0053 6.25776 38.8868 6.10518 39.4743C6.03281 39.7531 5.87514 39.8924 5.63216 39.8924C5.35 39.8924 4.92676 39.8774 4.36244 39.8472C3.80595 39.8172 3.38662 39.802 3.10446 39.802C2.79879 39.802 2.33245 39.8172 1.70544 39.8472C1.08627 39.8774 0.623853 39.8924 0.318182 39.8924C0.0595342 39.8924 -0.0414181 39.7833 0.0153038 39.5647C0.228518 38.7436 0.587538 37.5119 1.09234 35.8696C1.59911 34.2198 1.9591 32.9843 2.17231 32.1632C2.39531 31.3045 2.68964 30.02 3.0553 28.3099C3.43075 26.5923 3.729 25.3079 3.95004 24.4566C3.99308 24.2909 4.17527 24.208 4.49662 24.208C4.84931 24.208 5.63012 24.144 6.83903 24.0159C6.99969 24.0009 7.43562 23.9368 8.14687 23.8238C8.68767 23.7334 9.11472 23.6882 9.42824 23.6882C9.53801 23.6882 9.65659 23.8502 9.78408 24.1741C9.86453 24.3775 10.2715 25.2401 11.005 26.7618C11.3875 27.6131 12.019 28.8486 12.8994 30.4682C12.9916 30.4155 13.0943 30.1707 13.2078 29.7337C13.3584 29.1536 13.5343 28.2797 13.7356 27.1122C13.9389 25.9369 14.1158 25.0593 14.2665 24.4792C14.3428 24.1854 14.4593 24.0385 14.616 24.0385C14.9295 24.0385 15.3969 24.0498 16.018 24.0724C16.6391 24.095 17.1065 24.1063 17.42 24.1063C17.757 24.1063 18.2655 24.095 18.9454 24.0724C19.6253 24.0498 20.1337 24.0385 20.4708 24.0385C20.6119 24.0385 20.6561 24.1402 20.6032 24.3436Z" fill="black"/>
<path d="M48.6617 35.2582C48.5743 35.5329 48.4041 35.903 48.1512 36.3685C47.7973 37.0248 47.5988 37.395 47.556 37.4789C47.3239 38.0055 46.9445 38.7802 46.4175 39.8028C46.3214 39.9783 46.1443 40.066 45.8863 40.066C45.8057 40.066 45.6965 40.0546 45.5586 40.0317C44.1978 39.8485 42.3442 39.7569 39.998 39.7569C39.3529 39.7569 38.3845 39.7722 37.0928 39.8028C35.8012 39.8333 34.8368 39.8485 34.1998 39.8485C33.9338 39.8485 33.8359 39.7378 33.9063 39.5165C34.1782 38.6618 34.6345 37.3797 35.2752 35.6703C35.9182 33.9532 36.3757 32.6673 36.6476 31.8125C36.9244 30.9425 37.3961 29.3208 38.0624 26.9474C38.2325 26.3369 38.4783 25.425 38.7999 24.2115L38.8388 24.0513C38.8785 23.8757 39.0072 23.788 39.2249 23.788C39.8538 23.788 40.7923 23.8032 42.0404 23.8337C43.2965 23.8643 44.2431 23.8795 44.8801 23.8795C45.517 23.8795 46.4854 23.8643 47.7851 23.8337C49.085 23.8032 50.0574 23.788 50.7024 23.788C51.1539 23.788 51.3621 23.9825 51.327 24.3718C51.3187 24.5244 51.1857 25.196 50.9279 26.3865C50.6725 27.5694 50.518 28.2448 50.4646 28.4127C50.4161 28.5652 50.3072 28.6416 50.1378 28.6416C49.7025 28.6416 49.0587 28.5997 48.2065 28.5157C47.3543 28.4318 46.7066 28.3898 46.2631 28.3898C45.5455 28.3898 45.133 28.3936 45.0259 28.4012C44.3799 28.4547 44.0145 28.6149 43.9295 28.882C43.813 29.2483 44.115 29.4773 44.8357 29.5689C45.0381 29.5918 45.5505 29.6032 46.373 29.6032C47.0502 29.6032 47.709 29.5727 48.3493 29.5116C49.1959 29.4353 49.5427 29.3971 49.3895 29.3971C49.5992 29.3971 49.6688 29.5078 49.5983 29.7291C49.5303 29.9428 49.3897 30.2709 49.1763 30.7135C48.9071 31.2554 48.7467 31.595 48.6949 31.7324C48.2647 32.755 47.9804 33.4838 47.8421 33.9189C47.7887 34.0867 47.6369 34.1707 47.387 34.1707C47.4596 34.1707 47.1234 34.1248 46.3785 34.0333C45.5473 33.9341 44.5673 33.8844 43.4386 33.8844C42.7049 33.8844 42.2773 34.0753 42.1558 34.4568C42.0976 34.64 42.1035 34.7736 42.1735 34.8575C42.349 35.0406 43.5334 35.1322 45.7265 35.1322C46.0248 35.1322 46.4756 35.1094 47.0787 35.0635C47.6925 35.0101 48.1484 34.9835 48.4467 34.9835C48.6483 34.9835 48.7199 35.0751 48.6617 35.2582Z" fill="black"/>
<defs>
<linearGradient id="paint0_linear" x1="80.5337" y1="0" x2="80.5337" y2="42.21" gradientUnits="userSpaceOnUse">
<stop stop-color="#ABCBE4"/>
<stop offset="0.66" stop-color="#808080"/>
<stop offset="0.72" stop-color="#7C7C7C"/>
<stop offset="0.78" stop-color="#717171"/>
<stop offset="0.84" stop-color="#5F5F5F"/>
<stop offset="0.9" stop-color="#444444"/>
<stop offset="0.95" stop-color="#232323"/>
<stop offset="1"/>
</linearGradient>
</defs>
</svg>
