<?xml version="1.0" encoding="utf-8"?>
<!-- Generator: Adobe Illustrator 22.1.0, SVG Export Plug-In . SVG Version: 6.00 Build 0)  -->
<svg version="1.1" id="Слой_1" xmlns="http://www.w3.org/2000/svg" xmlns:xlink="http://www.w3.org/1999/xlink" x="0px" y="0px"
	 viewBox="0 0 1366 768" style="enable-background:new 0 0 1366 768;" xml:space="preserve">
<style type="text/css">
	.st0{fill:url(#SVGID_1_);}
	.st1{font-family:'BerlinSansFB-Bold';}
	.st2{font-size:99.0682px;}
	.st3{font-size:228.8758px;}
	.st4{font-size:224.1731px;}
	.st5{font-size:230.6143px;}
</style>
<g>
	<linearGradient id="SVGID_1_" gradientUnits="userSpaceOnUse" x1="787.504" y1="158.8749" x2="787.504" y2="554.8074">
		<stop  offset="0" style="stop-color:#ABCBE4"/>
		<stop  offset="0.6567" style="stop-color:#808080"/>
		<stop  offset="0.7222" style="stop-color:#7C7C7C"/>
		<stop  offset="0.7824" style="stop-color:#717171"/>
		<stop  offset="0.8405" style="stop-color:#5F5F5F"/>
		<stop  offset="0.8974" style="stop-color:#444444"/>
		<stop  offset="0.9527" style="stop-color:#232323"/>
		<stop  offset="1" style="stop-color:#000000"/>
	</linearGradient>
	<path class="st0" d="M221,451c0,0,14.6-25.2,11.1-41.9c0,0,83.4-118.8,141.4-249.7c0,0,177.4,131.7,237.7,161.6
		c0,0,56.8-87.8,86.1-162.1c0,0,341.9,256.4,656.8,392.2c0,0-24.1,1.1-31.3,3.5c0,0-227.4-69.1-636-319.6c0,0-39.8,69.7-56.2,96.6
		c0,0,247.9,155.4,400.7,218.6c0,0-25.9-1.1-33.6,4.6c0,0-351.9-134.9-636.4-322.2C361.2,232.6,315.3,336.8,221,451z"/>
	<text transform="matrix(0.8271 0.4904 -0.7692 0.639 987.1828 330.9861)" class="st1 st2">Travel</text>
	<text transform="matrix(0.9549 0 -0.3071 0.9517 206.2216 555.0486)" class="st1 st3">T</text>
	<text transform="matrix(0.9845 0 -0.252 0.9677 22.7034 553.9313)" class="st1 st4">N</text>
	<text transform="matrix(0.9574 0 -0.3035 0.9528 336.9143 552.4346)" class="st1 st5">E</text>
</g>
</svg>
