<svg width="138" height="88" viewBox="0 0 138 88" fill="none" xmlns="http://www.w3.org/2000/svg">
<path d="M93.75 37.5C104.125 37.5 112.438 29.125 112.438 18.75C112.438 8.375 104.125 0 93.75 0C83.375 0 75 8.375 75 18.75C75 29.125 83.375 37.5 93.75 37.5ZM43.75 37.5C54.125 37.5 62.4375 29.125 62.4375 18.75C62.4375 8.375 54.125 0 43.75 0C33.375 0 25 8.375 25 18.75C25 29.125 33.375 37.5 43.75 37.5ZM43.75 50C29.1875 50 0 57.3125 0 71.875V87.5H87.5V71.875C87.5 57.3125 58.3125 50 43.75 50ZM93.75 50C91.9375 50 89.875 50.125 87.6875 50.3125C94.9375 55.5625 100 62.625 100 71.875V87.5H137.5V71.875C137.5 57.3125 108.312 50 93.75 50Z" fill="black" fill-opacity="0.3"/>
</svg>
