<svg width="137" height="114" viewBox="0 0 137 114" fill="none" xmlns="http://www.w3.org/2000/svg">
<path d="M50.2007 75.75C33.5278 75.75 0.244507 84.125 0.244507 100.75V113.25H100.157V100.75C100.157 84.125 66.8736 75.75 50.2007 75.75Z" fill="black" fill-opacity="0.3"/>
<path d="M132.004 24.75C132.066 24.0625 132.129 23.375 132.129 22.625C132.129 21.875 132.066 21.1875 131.942 20.5L136.563 16.875C137 16.5625 137.062 15.9375 136.812 15.5L132.441 7.9375C132.191 7.4375 131.567 7.3125 131.13 7.4375L125.76 9.625C124.636 8.75 123.387 8.0625 122.075 7.5L121.263 1.6875C121.139 1.125 120.701 0.75 120.139 0.75H111.397C110.835 0.75 110.398 1.125 110.336 1.6875L109.524 7.5C108.212 8.0625 106.963 8.8125 105.839 9.625L100.407 7.4375C99.9072 7.25 99.3452 7.4375 99.0954 7.9375L94.7242 15.5C94.4744 16 94.5369 16.5625 94.974 16.875L99.595 20.5C99.4701 21.1875 99.4076 21.9375 99.4076 22.625C99.4076 23.3125 99.4701 24.0625 99.595 24.75L94.974 28.375C94.5369 28.6875 94.4744 29.3125 94.7242 29.75L99.0954 37.3125C99.3452 37.8125 99.9696 37.9375 100.407 37.8125L105.839 35.625C106.963 36.5 108.212 37.1875 109.524 37.75L110.336 43.5625C110.398 44.125 110.835 44.5 111.397 44.5H120.139C120.701 44.5 121.139 44.125 121.201 43.5625L122.013 37.75C123.324 37.1875 124.573 36.4375 125.697 35.625L131.13 37.8125C131.629 38 132.191 37.8125 132.441 37.3125L136.812 29.75C137.062 29.25 137 28.6875 136.563 28.375L132.004 24.75ZM115.768 30.4375C111.46 30.4375 107.963 26.9375 107.963 22.625C107.963 18.3125 111.46 14.8125 115.768 14.8125C120.077 14.8125 123.574 18.3125 123.574 22.625C123.574 26.9375 120.077 30.4375 115.768 30.4375Z" fill="black" fill-opacity="0.3"/>
<path d="M118.391 55L115.269 49.5625C115.081 49.1875 114.644 49.0625 114.332 49.1875L110.46 50.75C109.649 50.125 108.774 49.625 107.838 49.25L107.276 45.125C107.151 44.75 106.776 44.5 106.402 44.5H100.157C99.7823 44.5 99.4701 44.75 99.4076 45.1875L98.8456 49.3125C97.909 49.6875 97.0347 50.25 96.2229 50.8125L92.3513 49.25C91.9767 49.125 91.602 49.25 91.4147 49.625L88.2924 55.0625C88.1051 55.4375 88.1675 55.8125 88.4797 56.0625L91.7893 58.625C91.7269 59.125 91.6644 59.625 91.6644 60.125C91.6644 60.625 91.7269 61.1875 91.7893 61.625L88.4797 64.1875C88.1675 64.4375 88.1051 64.875 88.2924 65.1875L91.4147 70.625C91.602 71 92.0391 71.125 92.3513 71L96.2229 69.4375C97.0347 70.0625 97.909 70.5625 98.8456 70.9375L99.4076 75.0625C99.4701 75.5 99.7823 75.75 100.157 75.75H106.402C106.776 75.75 107.151 75.5 107.151 75.0625L107.713 70.9375C108.65 70.5625 109.524 70 110.336 69.4375L114.207 71C114.582 71.125 114.957 71 115.144 70.625L118.266 65.1875C118.453 64.8125 118.391 64.4375 118.079 64.1875L114.832 61.625C114.894 61.125 114.957 60.625 114.957 60.125C114.957 59.625 114.894 59.0625 114.832 58.625L118.141 56.0625C118.453 55.8125 118.516 55.375 118.391 55ZM103.279 65.3125C100.407 65.3125 98.0963 62.9375 98.0963 60.125C98.0963 57.25 100.469 54.9375 103.279 54.9375C106.089 54.9375 108.462 57.3125 108.462 60.125C108.462 63 106.152 65.3125 103.279 65.3125Z" fill="black" fill-opacity="0.3"/>
<path d="M23.5991 38.25H76.8649C78.5509 38.25 79.9247 36.875 79.9247 35.1875V35.0625C79.9247 33.375 78.5509 32 76.8649 32H75.1788C75.1788 22.75 70.1208 14.8125 62.6898 10.4375V16.375C62.6898 18.125 61.316 19.5 59.5675 19.5C57.8191 19.5 56.4453 18.125 56.4453 16.375V7.875C54.447 7.375 52.3863 7 50.2007 7C48.0152 7 45.9545 7.375 43.9562 7.875V16.375C43.9562 18.125 42.5824 19.5 40.834 19.5C39.0855 19.5 37.7117 18.125 37.7117 16.375V10.4375C30.2807 14.8125 25.2226 22.75 25.2226 32H23.5991C21.913 32 20.5392 33.375 20.5392 35.0625V35.25C20.5392 36.875 21.913 38.25 23.5991 38.25Z" fill="black" fill-opacity="0.3"/>
<path d="M50.2007 63.25C61.8156 63.25 71.4946 55.25 74.3046 44.5H26.0969C28.9069 55.25 38.5859 63.25 50.2007 63.25Z" fill="black" fill-opacity="0.3"/>
</svg>
