<svg width="126" height="100" viewBox="0 0 126 100" fill="none" xmlns="http://www.w3.org/2000/svg">
<path d="M62.9342 46.1874C62.9342 42.1249 65.3696 38.4999 69.0539 36.9374L103.898 22.1874C113.14 32.6874 118.386 45.3124 121.383 56.2499H72.9879C67.4303 56.2499 62.9342 51.7499 62.9342 46.1874Z" fill="black" fill-opacity="0.3"/>
<path d="M0.738876 45.1249C3.29913 17.5624 29.2139 -1.68765 56.8147 0.124851C72.4885 1.12485 84.5404 5.99985 93.8448 12.8749L64.2457 25.4374C55.9405 28.9999 50.5078 37.1249 50.5078 46.1874C50.5078 58.6249 60.6239 68.7499 73.0505 68.7499H124.068C125.38 76.9374 125.38 82.4999 125.38 82.4999V87.4999C125.38 94.3749 119.76 99.9999 112.891 99.9999H50.4453C21.2834 99.9999 -2.07116 74.9374 0.738876 45.1249Z" fill="black" fill-opacity="0.3"/>
</svg>
