<svg width="138" height="88" viewBox="0 0 138 88" fill="none" xmlns="http://www.w3.org/2000/svg">
<path d="M106.5 50.5L111.438 51.125L111.312 52.5625L114.25 53.625L115.188 52.625C118.312 54.25 121 56.75 122.75 59.875L121.688 60.9375L122.937 63.75L124.375 63.625C124.938 65.4375 125.25 67.3125 125.25 69.25L124.625 74.125L123.125 74.0625L121.937 77L123.125 77.9375C121.438 81.125 119 83.75 115.875 85.5L114.812 84.375L111.938 85.625L112.062 87.125C110.312 87.6875 108.438 88 106.5 88L101.562 87.375L101.625 85.8125L98.75 84.6875L97.75 85.875C94.625 84.1875 91.9375 81.75 90.1875 78.625L91.3125 77.5L90.0625 74.625L88.5625 74.75C88.0625 73 87.75 71.1875 87.75 69.25L88.4375 64.25L89.875 64.3125L91.0625 61.4375L89.9375 60.5C91.625 57.3125 94 54.75 97.125 52.9375L98.1875 54L101.062 52.75L100.938 51.375C102.688 50.8125 104.562 50.5 106.5 50.5ZM106.5 59.875C101.312 59.875 97.125 64.0625 97.125 69.25C97.125 74.4375 101.312 78.625 106.5 78.625C111.688 78.625 115.875 74.4375 115.875 69.25C115.875 64.0625 111.688 59.875 106.5 59.875ZM31.5 50.5L36.4375 51.125L36.3125 52.5625L39.25 53.625L40.1875 52.625C43.3125 54.25 46 56.75 47.75 59.875L46.6875 60.9375L47.9375 63.75L49.375 63.625C49.9375 65.4375 50.25 67.3125 50.25 69.25L49.625 74.125L48.0625 74.0625L46.9375 77L48.125 77.9375C46.4375 81.125 44 83.75 40.875 85.5L39.8125 84.375L36.9375 85.625L37.0625 87.125C35.3125 87.6875 33.4375 88 31.5 88L26.5625 87.375L26.625 85.8125L23.75 84.6875L22.75 85.875C19.625 84.1875 16.9375 81.75 15.1875 78.625L16.3125 77.5L15.0625 74.625L13.5625 74.75C13.0625 73 12.75 71.1875 12.75 69.25L13.4375 64.25L14.875 64.3125L16.0625 61.4375L14.9375 60.5C16.625 57.3125 19 54.75 22.125 52.9375L23.1875 54L26.0625 52.75L25.9375 51.375C27.6875 50.8125 29.5625 50.5 31.5 50.5ZM31.5 59.875C26.3125 59.875 22.125 64.0625 22.125 69.25C22.125 74.4375 26.3125 78.625 31.5 78.625C36.6875 78.625 40.875 74.4375 40.875 69.25C40.875 64.0625 36.6875 59.875 31.5 59.875ZM94 0.5L112.75 25.5H125.25C132.188 25.5 137.75 31.0625 137.75 38V56.75H125.25C125.25 46.375 116.875 38 106.5 38C96.125 38 87.75 46.375 87.75 56.75H50.25C50.25 46.375 41.875 38 31.5 38C21.125 38 12.75 46.375 12.75 56.75H0.25V25.5H59.625V0.5H94ZM69 9.875V25.5H103.125L90.875 9.875H69Z" fill="black" fill-opacity="0.3"/>
</svg>
