<svg width="52" height="18" viewBox="0 0 52 18" fill="none" xmlns="http://www.w3.org/2000/svg">
<path d="M35.6838 5.73028C35.6341 5.88134 35.5214 5.95682 35.3452 5.95682C35.5453 5.95682 34.5636 5.90021 32.4002 5.78689C31.9313 7.11588 31.6335 7.97292 31.5069 8.3581C31.2015 9.28689 30.7835 10.6801 30.2529 12.5376C29.7303 14.3952 29.3175 15.7846 29.0146 16.7059C28.9401 16.9324 28.7828 17.0456 28.5428 17.0456C28.2067 17.0456 27.6995 17.0305 27.0213 17.0003C26.3454 16.9626 25.8355 16.9437 25.4913 16.9437C25.1633 16.9437 24.6661 16.9588 24 16.989C23.3338 17.0192 22.8368 17.0343 22.5086 17.0343C22.2446 17.0343 22.1486 16.9248 22.2206 16.7059C22.5235 15.7846 23.0202 14.3952 23.711 12.5376C24.4096 10.6801 24.9117 9.28689 25.217 8.3581C25.3387 7.98806 25.5969 7.15362 25.992 5.8549C25.2729 5.90021 24.1892 5.98326 22.7411 6.10405C22.6304 6.05117 22.5776 6.01716 22.5825 6.00213C22.6098 5.91908 22.8044 5.5339 23.1664 4.8468C23.5642 4.09925 23.7923 3.6613 23.8505 3.53294C24.1029 2.83817 24.4572 2.00384 24.9135 1.02974C24.9573 0.969296 25.0272 0.939125 25.1233 0.939125C25.1553 0.939125 25.2168 0.946588 25.3079 0.961727C26.8538 1.12782 28.7951 1.21087 31.1317 1.21087C31.844 1.21087 33.2089 1.12409 35.2266 0.950426C36.2327 0.859807 36.7718 0.814499 36.8438 0.814499C37.0838 0.814499 37.1853 0.871108 37.1481 0.984434C37.0587 1.25618 36.9034 1.6678 36.6821 2.21898C36.4633 2.76269 36.3093 3.17047 36.2199 3.44232C36.1355 3.69904 36.0462 4.08038 35.9519 4.58625C35.8576 5.09222 35.7682 5.47356 35.6838 5.73028Z" fill="#9aaebe"/>
<path d="M20.6032 1.34361C20.3802 2.20246 20.0007 3.49819 19.4645 5.23081C18.9304 6.95597 18.5508 8.25171 18.3259 9.11802L16.3512 16.6325C16.3062 16.8059 16.1465 16.8924 15.8721 16.8924C15.6135 16.8924 15.2294 16.8774 14.72 16.8472C14.2184 16.8172 13.8383 16.802 13.5795 16.802C13.3131 16.802 12.9056 16.8172 12.3569 16.8472C11.8083 16.8774 11.3968 16.8924 11.1225 16.8924C10.9893 16.8924 10.8608 16.7681 10.7373 16.5195C8.87412 12.7379 7.82508 10.8469 7.58996 10.8469C7.48019 10.8469 7.39695 10.9562 7.34024 11.1746C7.18761 11.7623 6.98133 12.6474 6.72124 13.8302C6.46311 15.0053 6.25776 15.8868 6.10518 16.4743C6.03281 16.7531 5.87514 16.8924 5.63216 16.8924C5.35 16.8924 4.92676 16.8774 4.36244 16.8472C3.80595 16.8172 3.38662 16.802 3.10446 16.802C2.79879 16.802 2.33245 16.8172 1.70544 16.8472C1.08627 16.8774 0.623853 16.8924 0.318182 16.8924C0.0595342 16.8924 -0.0414181 16.7833 0.0153038 16.5647C0.228518 15.7436 0.587538 14.5119 1.09234 12.8696C1.59911 11.2198 1.9591 9.98433 2.17231 9.16323C2.39531 8.30448 2.68964 7.02005 3.0553 5.30992C3.43075 3.59233 3.729 2.30789 3.95004 1.45661C3.99308 1.29094 4.17527 1.208 4.49662 1.208C4.84931 1.208 5.63012 1.14403 6.83903 1.01589C6.99969 1.00086 7.43562 0.936784 8.14687 0.823778C8.68767 0.733373 9.11472 0.688171 9.42824 0.688171C9.53801 0.688171 9.65659 0.850218 9.78408 1.1741C9.86453 1.37751 10.2715 2.24009 11.005 3.76184C11.3875 4.61312 12.019 5.84862 12.8994 7.46823C12.9916 7.41546 13.0943 7.17069 13.2078 6.73369C13.3584 6.15363 13.5343 5.27975 13.7356 4.11216C13.9389 2.93689 14.1158 2.05928 14.2665 1.47922C14.3428 1.1854 14.4593 1.03849 14.616 1.03849C14.9295 1.03849 15.3969 1.04979 16.018 1.07239C16.6391 1.09499 17.1065 1.10629 17.42 1.10629C17.757 1.10629 18.2655 1.09499 18.9454 1.07239C19.6253 1.04979 20.1337 1.03849 20.4708 1.03849C20.6119 1.03849 20.6561 1.1402 20.6032 1.34361Z" fill="#9aaebe"/>
<path d="M48.6617 12.2582C48.5743 12.5329 48.4041 12.903 48.1512 13.3685C47.7973 14.0248 47.5988 14.395 47.556 14.4789C47.3239 15.0055 46.9445 15.7802 46.4175 16.8028C46.3214 16.9783 46.1443 17.066 45.8863 17.066C45.8057 17.066 45.6965 17.0546 45.5586 17.0317C44.1978 16.8485 42.3442 16.7569 39.998 16.7569C39.3529 16.7569 38.3845 16.7722 37.0928 16.8028C35.8012 16.8333 34.8368 16.8485 34.1998 16.8485C33.9338 16.8485 33.8359 16.7378 33.9063 16.5165C34.1782 15.6618 34.6345 14.3797 35.2752 12.6703C35.9182 10.9532 36.3757 9.66727 36.6476 8.81247C36.9244 7.94254 37.3961 6.32079 38.0624 3.94744C38.2325 3.33689 38.4783 2.42495 38.7999 1.21152L38.8388 1.05128C38.8785 0.875696 39.0072 0.787956 39.2249 0.787956C39.8538 0.787956 40.7923 0.803202 42.0404 0.833692C43.2965 0.864289 44.2431 0.879535 44.8801 0.879535C45.517 0.879535 46.4854 0.864289 47.7851 0.833692C49.085 0.803202 50.0574 0.787956 50.7024 0.787956C51.1539 0.787956 51.3621 0.982519 51.327 1.37175C51.3187 1.52442 51.1857 2.19595 50.9279 3.38646C50.6725 4.56941 50.518 5.24478 50.4646 5.41269C50.4161 5.56525 50.3072 5.64158 50.1378 5.64158C49.7025 5.64158 49.0587 5.59968 48.2065 5.51567C47.3543 5.43177 46.7066 5.38977 46.2631 5.38977C45.5455 5.38977 45.133 5.39361 45.0259 5.40118C44.3799 5.45469 44.0145 5.61493 43.9295 5.88198C43.813 6.2483 44.115 6.47729 44.8357 6.56887C45.0381 6.59179 45.5505 6.6032 46.373 6.6032C47.0502 6.6032 47.709 6.57271 48.3493 6.51162C49.1959 6.43529 49.5427 6.39712 49.3895 6.39712C49.5992 6.39712 49.6688 6.50779 49.5983 6.72911C49.5303 6.94275 49.3897 7.2709 49.1763 7.71354C48.9071 8.25544 48.7467 8.59499 48.6949 8.73241C48.2647 9.75501 47.9804 10.4838 47.8421 10.9189C47.7887 11.0867 47.6369 11.1707 47.387 11.1707C47.4596 11.1707 47.1234 11.1248 46.3785 11.0333C45.5473 10.9341 44.5673 10.8844 43.4386 10.8844C42.7049 10.8844 42.2773 11.0753 42.1558 11.4568C42.0976 11.64 42.1035 11.7736 42.1735 11.8575C42.349 12.0406 43.5334 12.1322 45.7265 12.1322C46.0248 12.1322 46.4756 12.1094 47.0787 12.0635C47.6925 12.0101 48.1484 11.9835 48.4467 11.9835C48.6483 11.9835 48.7199 12.0751 48.6617 12.2582Z" fill="#9aaebe "/>
</svg>
